<svg width="176.2" height="40.7" viewBox="0 0 176.2 40.7" xmlns="http://www.w3.org/2000/svg"><g id="svgGroup" stroke-linecap="round" fill-rule="nonzero" font-size="9pt" stroke="#000000" stroke-width="0.25mm" fill="#000" style="stroke:#000000;stroke-width:0.25mm;fill:#000"><path d="M 122 40.4 Q 122.75 37.9 123.7 34.925 Q 124.65 31.95 125.9 27.925 Q 127.15 23.9 128.8 18.35 Q 130.45 12.8 132.6 5.25 Q 132.65 5.1 132.8 4.5 Q 132.95 3.9 132.95 3.3 Q 132.95 2.9 132.825 2.75 Q 132.7 2.6 132.3 2.6 Q 131.25 2.6 130.275 3.45 Q 129.3 4.3 128.525 5.575 Q 127.75 6.85 127.325 8.225 Q 126.9 9.6 126.9 10.7 Q 126.9 11.9 127.4 13.05 Q 125.2 13.05 124.3 12.125 Q 123.4 11.2 123.4 9.8 Q 123.4 8.1 124.45 6.375 Q 125.5 4.65 127.125 3.225 Q 128.75 1.8 130.525 0.925 Q 132.3 0.05 133.75 0.05 Q 135.5 0.05 136.625 1.325 Q 137.75 2.6 138.475 4.8 Q 139.2 7 139.7 9.8 Q 140.2 12.6 140.65 15.7 Q 141.25 19.7 141.6 22.075 Q 141.95 24.45 142.175 25.85 Q 142.4 27.25 142.575 28.2 Q 142.75 29.15 142.95 30.35 Q 143.55 27.95 144.175 25.275 Q 144.8 22.6 145.45 19.85 Q 146.1 17.1 146.725 14.475 Q 147.35 11.85 148 9.55 Q 148.65 7.25 149.275 5.475 Q 149.9 3.7 150.5 2.65 Q 150.95 1.85 151.925 0.925 Q 152.9 0 154.55 0 Q 153.7 2.25 152.625 5.575 Q 151.55 8.9 150.45 12.775 Q 149.35 16.65 148.325 20.675 Q 147.3 24.7 146.5 28.475 Q 145.7 32.25 145.225 35.35 Q 144.75 38.45 144.75 40.4 Q 142.9 40.4 141.725 39.525 Q 140.55 38.65 139.95 36.1 Q 139.75 35.25 139.35 33.25 Q 138.95 31.25 138.45 28.525 Q 137.95 25.8 137.4 22.8 Q 136.85 19.8 136.35 16.925 Q 135.85 14.05 135.45 11.775 Q 135.05 9.5 134.8 8.3 Q 132.55 16.5 130.95 22.175 Q 129.35 27.85 128.15 31.425 Q 126.95 35 126 36.95 Q 125.05 38.9 124.1 39.65 Q 123.15 40.4 122 40.4 Z M 26 22.35 L 25.5 23.9 Q 24.6 26.65 24.025 28.475 Q 23.45 30.3 23.15 31.575 Q 22.85 32.85 22.75 33.875 Q 22.65 34.9 22.65 36 Q 22.65 37 22.7 38.075 Q 22.75 39.15 22.8 40.7 Q 21.3 40.5 20.575 39.825 Q 19.85 39.15 19.625 38.25 Q 19.4 37.35 19.4 36.5 L 19.4 36 Q 19.4 35.75 19.45 35.5 Q 17.7 37.65 15.425 39.025 Q 13.15 40.4 10.3 40.4 Q 7.5 40.4 5.15 38.925 Q 2.8 37.45 1.4 34.625 Q 0 31.8 0 27.85 Q 0 24 1.2 20.05 Q 2.4 16.1 4.5 12.525 Q 6.6 8.95 9.3 6.15 Q 12 3.35 15.025 1.725 Q 18.05 0.1 21.1 0.1 Q 23.3 0.1 24.6 0.925 Q 25.9 1.75 26.475 3.1 Q 27.05 4.45 27.05 6 Q 27.05 7.75 26.425 9.5 Q 25.8 11.25 24.725 12.4 Q 23.65 13.55 22.35 13.55 Q 21.75 13.55 21.25 13.2 Q 20.75 12.85 20.25 11.9 Q 21 11.4 21.925 10.15 Q 22.85 8.9 23.55 7.375 Q 24.25 5.85 24.25 4.65 Q 24.25 3.65 23.625 2.975 Q 23 2.3 21.55 2.3 Q 19.3 2.3 16.925 3.975 Q 14.55 5.65 12.4 8.425 Q 10.25 11.2 8.525 14.625 Q 6.8 18.05 5.8 21.625 Q 4.8 25.2 4.8 28.4 Q 4.8 32.95 6.775 35.475 Q 8.75 38 11.5 38 Q 13.55 38 15.275 36.7 Q 17 35.4 18.325 33.275 Q 19.65 31.15 20.45 28.65 Q 21.25 26.15 21.45 23.75 Q 20.2 23.5 18.875 23.375 Q 17.55 23.25 16.1 23.25 Q 15.3 23.25 14.5 23.275 Q 13.7 23.3 12.8 23.35 Q 13.25 21.6 14.225 20.775 Q 15.2 19.95 16.8 19.95 Q 18.3 19.95 19.825 20.425 Q 21.35 20.9 22.925 21.45 Q 24.5 22 26 22.35 Z M 175.25 27.4 L 176.2 28.35 Q 175 31.05 173.325 33.125 Q 171.65 35.2 169.8 36.375 Q 167.95 37.55 166.05 37.55 Q 164 37.55 163 36.25 Q 162 34.95 161.9 33.45 L 161.9 33.3 L 161.9 33.2 Q 159.9 35.6 158.225 37 Q 156.55 38.4 154.65 38.4 Q 153 38.4 151.775 37.3 Q 150.55 36.2 150.55 34 Q 150.55 32.25 151.35 30.2 Q 152.15 28.15 153.55 26.15 Q 154.95 24.15 156.75 22.525 Q 158.55 20.9 160.6 19.9 Q 162.65 18.9 164.7 18.9 Q 166.85 18.9 168.35 20 Q 169.85 21.1 169.85 22.9 Q 169.85 24.25 168.9 24.85 Q 167.95 25.45 166.65 25.2 Q 166.75 24.75 166.825 24.3 Q 166.9 23.85 166.9 23.35 Q 166.9 22.35 166.5 21.55 Q 166.1 20.75 164.8 20.75 Q 163.4 20.75 161.95 21.7 Q 160.5 22.65 159.175 24.175 Q 157.85 25.7 156.8 27.525 Q 155.75 29.35 155.15 31.1 Q 154.55 32.85 154.55 34.25 Q 154.55 35.85 155.7 35.85 Q 156.85 35.85 158.25 34.725 Q 159.65 33.6 161.075 31.9 Q 162.5 30.2 163.8 28.425 Q 165.1 26.65 166.05 25.4 Q 166.2 25.15 166.45 25.15 Q 166.65 25.2 167.225 25.375 Q 167.8 25.55 168.3 25.9 Q 168.8 26.25 168.8 26.8 Q 168.8 27.3 168.375 28.075 Q 167.95 28.85 167.375 29.775 Q 166.8 30.7 166.375 31.625 Q 165.95 32.55 165.95 33.4 Q 165.95 34.05 166.3 34.625 Q 166.65 35.2 167.45 35.2 Q 168.65 35.2 170.825 33.425 Q 173 31.65 175.25 27.4 Z M 107.5 27.4 L 108.35 28.1 Q 107.3 30.55 105.975 32.575 Q 104.65 34.6 103.025 35.825 Q 101.4 37.05 99.4 37.05 Q 97.45 37.05 96.425 36.075 Q 95.4 35.1 95.4 33.6 Q 95.4 32.6 95.75 31.475 Q 96.1 30.35 96.45 29.2 Q 96.8 28.05 96.8 27 Q 96.8 25.9 96.275 25.475 Q 95.75 25.05 95.05 25.05 Q 93.55 25.05 91.975 26.275 Q 90.4 27.5 88.925 29.35 Q 87.45 31.2 86.15 33.2 Q 84.85 35.2 83.9 36.8 Q 82.95 36.8 82.1 36.475 Q 81.25 36.15 80.65 35.35 Q 80.7 35.1 81.225 33.825 Q 81.75 32.55 82.4 30.775 Q 83.05 29 83.55 27.05 Q 84.05 25.1 84.05 23.5 Q 84.4 23.1 85.125 22.7 Q 85.85 22.3 86.65 22.3 Q 88.4 22.3 88.4 23.8 Q 88.4 24.4 88.175 25.575 Q 87.95 26.75 87.55 28.25 Q 88.85 26.5 90.4 24.95 Q 91.95 23.4 93.625 22.425 Q 95.3 21.45 97 21.45 Q 99.15 21.45 100.175 22.9 Q 101.2 24.35 101.2 26.1 Q 101.2 27.6 100.7 28.9 Q 100.2 30.2 99.725 31.35 Q 99.25 32.5 99.25 33.6 Q 99.25 34.4 99.625 34.725 Q 100 35.05 100.45 35.05 Q 101.65 35.05 102.95 33.9 Q 104.25 32.75 105.425 30.975 Q 106.6 29.2 107.5 27.4 Z M 83.85 27.45 Q 81.7 31.7 79.7 33.4 Q 77.7 35.1 76 35.1 Q 74.9 35.1 74.325 34.575 Q 73.75 34.05 73.75 32.45 Q 73.75 30.8 74.525 28.975 Q 75.3 27.15 76.325 25.45 Q 77.35 23.75 78.125 22.45 Q 78.9 21.15 78.9 20.5 Q 78.9 19.75 78.45 19.4 Q 78 19.05 77.4 19.05 Q 76.3 19.05 75.2 20.125 Q 74.1 21.2 73.15 22.9 Q 72.2 24.6 71.475 26.525 Q 70.75 28.45 70.35 30.2 Q 69.95 31.95 69.95 33.1 Q 69.95 34.95 71.05 36.25 Q 72.15 37.55 74.35 37.55 Q 77.45 37.55 80.15 35.1 Q 82.85 32.65 84.6 28.25 L 83.85 27.45 Z M 71.7 27.65 L 72.25 28.1 Q 71.1 30.85 69.675 31.95 Q 68.25 33.05 66.95 33.05 Q 65.3 33.05 64.275 31.725 Q 63.25 30.4 62.7 28.4 Q 61.5 30.65 59.975 32.85 Q 58.45 35.05 56.8 36.525 Q 55.15 38 53.55 38 Q 51.7 38 50.975 36.325 Q 50.25 34.65 50.25 32 Q 50.25 31.45 50.3 30.025 Q 50.35 28.6 50.45 26.05 Q 50.5 24.55 50.775 24 Q 51.05 23.45 52.35 23.45 Q 53.55 23.45 53.775 23.925 Q 54 24.4 54 25.85 Q 54 27.35 53.875 29.05 Q 53.75 30.75 53.75 32.35 Q 53.75 33.9 53.9 34.625 Q 54.05 35.35 54.65 35.35 Q 55.55 35.35 56.6 34.375 Q 57.65 33.4 58.725 31.875 Q 59.8 30.35 60.775 28.575 Q 61.75 26.8 62.5 25.15 Q 62.6 21.75 63.3 20.6 Q 64 19.45 65.1 19.45 Q 66.35 19.45 66.8 20.25 Q 67.25 21.05 67.25 21.65 Q 67.25 22.4 66.85 23 Q 66.45 23.6 66.05 24.65 Q 65.65 25.7 65.65 27.85 Q 65.65 28.55 65.775 29.375 Q 65.9 30.2 66.375 30.775 Q 66.85 31.35 67.8 31.35 Q 68.8 31.35 69.725 30.525 Q 70.65 29.7 71.7 27.65 Z M 51.05 27.4 Q 48.8 31.65 46.625 33.425 Q 44.45 35.2 43.25 35.2 Q 42.45 35.2 42.1 34.625 Q 41.75 34.05 41.75 33.4 Q 41.75 32.55 42.175 31.625 Q 42.6 30.7 43.175 29.775 Q 43.75 28.85 44.175 28.075 Q 44.6 27.3 44.6 26.8 Q 44.6 26.25 44.1 25.9 Q 43.6 25.55 43.025 25.375 Q 42.45 25.2 42.25 25.15 Q 42 25.15 41.85 25.4 Q 40.9 26.65 39.6 28.425 Q 38.3 30.2 36.875 31.9 Q 35.45 33.6 34.05 34.725 Q 32.65 35.85 31.5 35.85 Q 30.35 35.85 30.35 34.25 Q 30.35 32.85 30.95 31.1 Q 31.55 29.35 32.6 27.525 Q 33.65 25.7 34.975 24.175 Q 36.3 22.65 37.75 21.7 Q 39.2 20.75 40.6 20.75 Q 41.9 20.75 42.3 21.55 Q 42.7 22.35 42.7 23.35 Q 42.7 23.85 42.625 24.3 Q 42.55 24.75 42.45 25.2 Q 43.75 25.45 44.7 24.85 Q 45.65 24.25 45.65 22.9 Q 45.65 21.1 44.15 20 Q 42.65 18.9 40.5 18.9 Q 38.45 18.9 36.4 19.9 Q 34.35 20.9 32.55 22.525 Q 30.75 24.15 29.35 26.15 Q 27.95 28.15 27.15 30.2 Q 26.35 32.25 26.35 34 Q 26.35 36.2 27.575 37.3 Q 28.8 38.4 30.45 38.4 Q 32.35 38.4 34.025 37 Q 35.7 35.6 37.7 33.2 L 37.7 33.3 L 37.7 33.45 Q 37.8 34.95 38.8 36.25 Q 39.8 37.55 41.85 37.55 Q 43.75 37.55 45.6 36.375 Q 47.45 35.2 49.125 33.125 Q 50.8 31.05 52 28.35 L 51.05 27.4 Z M 80.25 15 Q 81.6 15 82.75 14.025 Q 83.9 13.05 83.9 12 Q 83.9 10.95 83.275 10.55 Q 82.65 10.15 81.75 10.15 Q 80.35 10.15 79.05 11 Q 77.75 11.85 77.75 13.05 Q 77.75 14.05 78.525 14.525 Q 79.3 15 80.25 15 Z" vector-effect="non-scaling-stroke"/></g></svg>